<svg viewbox="0 0 24 24" fill="none" xmlns="http://www.w3.org/2000/svg"><path d="M2.5 12.362c0-.4.334-.724.745-.724h2.608c.411 0 .745.324.745.724v9.414c0 .4-.334.724-.745.724H3.245a.735.735 0 0 1-.745-.724v-9.414zm7.451-4.707c0-.4.334-.724.745-.724h2.608c.411 0 .745.324.745.724v14.12c0 .4-.334.725-.745.725h-2.608a.735.735 0 0 1-.745-.724V7.656zm7.451-5.431c0-.4.334-.724.745-.724h2.608c.411 0 .745.324.745.724v19.552c0 .4-.334.724-.745.724h-2.608a.735.735 0 0 1-.745-.724V2.224z" fill="#00ADEF"/></svg>