<svg viewbox="0 0 24 24" fill="none" xmlns="http://www.w3.org/2000/svg"><path fill-rule="evenodd" clip-rule="evenodd" d="M5 2h14a1 1 0 0 1 1 1v18a1 1 0 0 1-1 1h-6.53v-8.071a.5.5 0 0 0-.5-.5H7.325a.5.5 0 0 0-.5.5V22H5a1 1 0 0 1-1-1V3a1 1 0 0 1 1-1zm1.382 1.905a.5.5 0 0 0-.5.5v1.857a.5.5 0 0 0 .5.5h1.824a.5.5 0 0 0 .5-.5V4.405a.5.5 0 0 0-.5-.5H6.382zm4.206.5a.5.5 0 0 1 .5-.5h1.824a.5.5 0 0 1 .5.5v1.857a.5.5 0 0 1-.5.5h-1.824a.5.5 0 0 1-.5-.5V4.405zm5.206-.5a.5.5 0 0 0-.5.5v1.857a.5.5 0 0 0 .5.5h1.824a.5.5 0 0 0 .5-.5V4.405a.5.5 0 0 0-.5-.5h-1.824zM5.882 9.167a.5.5 0 0 1 .5-.5h1.824a.5.5 0 0 1 .5.5v1.857a.5.5 0 0 1-.5.5H6.382a.5.5 0 0 1-.5-.5V9.167zm5.206-.5a.5.5 0 0 0-.5.5v1.857a.5.5 0 0 0 .5.5h1.824a.5.5 0 0 0 .5-.5V9.167a.5.5 0 0 0-.5-.5h-1.824zm4.206.5a.5.5 0 0 1 .5-.5h1.824a.5.5 0 0 1 .5.5v1.857a.5.5 0 0 1-.5.5h-1.824a.5.5 0 0 1-.5-.5V9.167zm0 4.762a.5.5 0 0 1 .5-.5h1.824a.5.5 0 0 1 .5.5v1.857a.5.5 0 0 1-.5.5h-1.824a.5.5 0 0 1-.5-.5v-1.857zm.5 4.261a.5.5 0 0 0-.5.5v1.858a.5.5 0 0 0 .5.5h1.824a.5.5 0 0 0 .5-.5V18.69a.5.5 0 0 0-.5-.5h-1.824z" fill="#00ADEF"/></svg>