<svg viewBox="0 0 130 130" fill="none" xmlns="http://www.w3.org/2000/svg"><path opacity=".6" clip-rule="evenodd" d="M65 97c17.673 0 32-14.327 32-32 0-17.673-14.327-32-32-32-17.673 0-32 14.327-32 32 0 17.673 14.327 32 32 32z" stroke="url(#ads0_linear)"/><path fill-rule="evenodd" clip-rule="evenodd" d="M65 81c8.837 0 16-7.163 16-16s-7.163-16-16-16-16 7.163-16 16 7.163 16 16 16z" fill="url(#ads1_linear)"/><path opacity=".3" clip-rule="evenodd" d="M65 129c35.346 0 64-28.654 64-64 0-35.346-28.654-64-64-64C29.654 1 1 29.654 1 65c0 35.346 28.654 64 64 64z" stroke="url(#ads2_linear)" stroke-dasharray="6"/><defs><linearGradient id="ads0_linear" x1="97" y1="33" x2="33" y2="65" gradientUnits="userSpaceOnUse"><stop stop-color="#79CD51"/><stop offset="1" stop-color="#19AB4F"/></linearGradient><linearGradient id="ads1_linear" x1="81" y1="49" x2="49" y2="65" gradientUnits="userSpaceOnUse"><stop stop-color="#79CD51"/><stop offset="1" stop-color="#19AB4F"/></linearGradient><linearGradient id="ads2_linear" x1="129" y1="1" x2="1" y2="65" gradientUnits="userSpaceOnUse"><stop stop-color="#79CD51"/><stop offset="1" stop-color="#19AB4F"/></linearGradient></defs></svg>