<svg viewBox="0 0 128 128" fill="none" xmlns="http://www.w3.org/2000/svg"><path d="M39 65a2 2 0 0 1 2-2h7a2 2 0 0 1 2 2v26a2 2 0 0 1-2 2h-7a2 2 0 0 1-2-2V65z" fill="url(#analytics0_linear)"/><path d="M59 52a2 2 0 0 1 2-2h7a2 2 0 0 1 2 2v39a2 2 0 0 1-2 2h-7a2 2 0 0 1-2-2V52z" fill="url(#analytics1_linear)"/><path d="M79 37a2 2 0 0 1 2-2h7a2 2 0 0 1 2 2v54a2 2 0 0 1-2 2h-7a2 2 0 0 1-2-2V37z" fill="url(#analytics2_linear)"/><defs><linearGradient id="analytics0_linear" x1="90" y1="35" x2="36.577" y2="58.488" gradientUnits="userSpaceOnUse"><stop stop-color="#79CD51"/><stop offset="1" stop-color="#19AB4F"/></linearGradient><linearGradient id="analytics1_linear" x1="90" y1="35" x2="36.577" y2="58.488" gradientUnits="userSpaceOnUse"><stop stop-color="#79CD51"/><stop offset="1" stop-color="#19AB4F"/></linearGradient><linearGradient id="analytics2_linear" x1="90" y1="35" x2="36.577" y2="58.488" gradientUnits="userSpaceOnUse"><stop stop-color="#79CD51"/><stop offset="1" stop-color="#19AB4F"/></linearGradient></defs></svg>