<svg width="53" height="32" viewBox="0 0 53 32" fill="none" xmlns="http://www.w3.org/2000/svg">
<path d="M12.6031 15.1188V20.3655H33.6362C34.8808 20.3655 35.8898 21.3852 35.8898 22.6431C35.8898 23.901 34.8808 24.9208 33.6362 24.9208H12.6031V30.4787C12.6031 31.7543 11.1412 32.4614 10.1583 31.6612L0.559888 23.8465C-0.194829 23.232 -0.184987 22.0668 0.580002 21.4654L10.1784 13.9202C11.1652 13.1444 12.6031 13.8552 12.6031 15.1188Z" fill="#00ADEF"/>
<path d="M40.3969 16.8812V11.6345L19.3638 11.6345C18.1192 11.6345 17.1102 10.6148 17.1102 9.35688C17.1102 8.09898 18.1192 7.07924 19.3638 7.07924L40.3969 7.07924V1.52128C40.3969 0.245687 41.8588 -0.461414 42.8417 0.338806L52.4401 8.15352C53.1948 8.76798 53.185 9.93322 52.42 10.5346L42.8216 18.0798C41.8348 18.8556 40.3969 18.1448 40.3969 16.8812Z" fill="#00ADEF"/>
</svg>
