<svg width="1440" height="673" viewBox="0 0 1440 673" fill="none" xmlns="http://www.w3.org/2000/svg">
	<path opacity="0.2" d="M0 295.436C43.3284 290.285 121.993 267.769 238.256 182.81C376.549 63.432 548.5 76.5 548.5 76.5C665.858 86.0902 719.865 159.095 856.582 193.266C993.299 227.436 1084.65 42.1683 1191.7 10.1879C1298.89 -21.8343 1410.93 49.0107 1440 69.3241" stroke="#489821" stroke-width="3" stroke-dasharray="6"/>
<path opacity="0.321596" d="M856.582 191.266C993.299 225.436 1084.65 40.1683 1191.7 8.18793C1298.89 -23.8343 1410.93 47.0107 1440 67.3241V673H0V293.436C43.3285 288.285 121.993 265.769 238.256 180.81C376.549 61.432 548.5 74.5 548.5 74.5C665.858 84.0902 719.865 157.095 856.582 191.266Z" fill="url(#paint0_linear)"/>
<defs>
<linearGradient id="paint0_linear" x1="-1.64206" y1="676.688" x2="-1.64206" y2="0.212653" gradientUnits="userSpaceOnUse">
<stop stop-color="white"/>
<stop offset="1" stop-color="#E9E9EE"/>
</linearGradient>
</defs>
</svg>