<svg xmlns="http://www.w3.org/2000/svg" width="112" height="39" fill="none">
	<g clip-path="url(#clip0)">
		<path fill="#383F4C" class="bg-animate-change" d="M39.9556 9.75854h-6.8318V38.8266h6.8318V9.75854zM86.3295 9.75854h-6.8318V38.8266h6.8318V9.75854zM75.9784 0h-6.8318v38.8266h6.8318V0zM86.3295 0h-6.8318v6.22887h6.8318V0zM14.2841 9.75854H7.45233V38.8266h6.83177V9.75854z"/>
		<path fill="#79CD51" d="M21.9445 0H0v6.22887h21.9445V0z"/>
		<path fill="#383F4C" class="bg-animate-change" d="M29.3977 15.9874V9.75854h-2.6913c-4.7616 0-8.695 3.94496-8.695 8.72046v20.3476h6.8317v-20.14c0-1.4534 1.2422-2.6992 2.6913-2.6992h1.8633zM52.17 38.8266h4.5546c4.7615 0 8.695-3.9449 8.695-8.7204V18.479c0-4.7755-3.9335-8.72044-8.695-8.72044h-6.4178V0H43.475v30.1062c0 4.7755 3.9335 8.7204 8.695 8.7204zm-1.6562-22.8392h5.3827c1.4491 0 2.6913 1.2458 2.6913 2.6992V29.691c0 1.4534-1.2422 2.6991-2.6913 2.6991h-2.6913c-1.4492 0-2.6914-1.2457-2.6914-2.6991V15.9874zM103.305 9.75854h-4.5545c-4.7616 0-8.695 3.94496-8.695 8.72046v11.6272c0 4.7755 3.9334 8.7204 8.695 8.7204h4.5545c4.762 0 8.695-3.9449 8.695-8.7204V18.479c0-4.9831-3.933-8.72046-8.695-8.72046zm1.863 19.93236c0 1.4534-1.242 2.6992-2.691 2.6992h-2.6914c-1.4492 0-2.6913-1.2458-2.6913-2.6992V18.6866c0-1.4534 1.2421-2.6992 2.6913-2.6992h2.6914c1.449 0 2.691 1.2458 2.691 2.6992v11.0043zM39.9557 0h-6.8318v6.22887h6.8318V0z"/>
	</g>
	<defs>
		<clipPath id="clip0">
			<path fill="transparent" d="M0 0h112v38.8266H0z"/>
		</clipPath>
	</defs>
</svg>