<svg viewBox="0 0 1440 1229" fill="none">
	<path
		d="M1442 0H2v1227h.47c7.914-16.74 114.58-239.345 236.03-334.356 96.932-75.83 202.223-70.617 307.738-65.394C650.921 832.433 755.824 837.626 853 763.7c94.13-71.61 122.1-164.539 150.52-258.969 26.48-87.976 53.35-177.256 134.48-251.812 96.11-88.319 278.46-174.658 304-186.533V0z"
		fill="#fff"
	>
	</path>
	<path
		opacity="0.2"
		d="M1442 66.5s-200.51 90.351-304 185.5c-168.21 154.649-103.17 372.616-285 511-195.124 148.504-421.4-22.127-614.5 129C112.263 990.798 2 1227.5 2 1227.5"
		stroke="#489821"
		strokeWidth="3"
		strokeDasharray="6"
	/>
</svg>
