<svg viewbox="0 0 24 24" fill="none" xmlns="http://www.w3.org/2000/svg"><path d="M11.664 22.353c0 .357.29.647.647.647h.863c.357 0 .647-.29.647-.647v-2C16.491 19.89 18 18.09 18 15.649c0-5.191-7.333-4.574-7.333-7.658 0-1.337.89-2.056 2.345-2.056 1.08 0 1.84.34 2.642.96a.678.678 0 0 0 .913-.061l.742-.803a.616.616 0 0 0-.03-.882c-.905-.797-1.985-1.403-3.458-1.579V1.647A.647.647 0 0 0 13.174 1h-.863a.647.647 0 0 0-.647.647v1.975c-2.426.41-3.99 2.107-3.99 4.497 0 4.832 7.333 4.344 7.333 7.736 0 1.388-.862 2.21-2.615 2.21-1.247 0-2.356-.471-3.445-1.205a.673.673 0 0 0-.929.16l-.688.985a.602.602 0 0 0 .117.834c1.185.877 2.764 1.455 4.217 1.59v1.924z" fill="#00ADEF"/></svg>