<svg viewbox="0 0 24 24" fill="none" xmlns="http://www.w3.org/2000/svg"><path d="M1.203 17.394a1.001 1.001 0 1 0 1.594 1.212l-1.594-1.212zM8.67 9.238l.689-.727a1.001 1.001 0 0 0-1.486.12l.797.607zm6.039 5.723l-.689.727a1.001 1.001 0 0 0 1.466-.095l-.777-.632zm8.069-8.329a1.001 1.001 0 0 0-1.554-1.264l1.554 1.264zM2.797 18.606l6.669-8.762-1.594-1.213-6.669 8.763 1.594 1.212zM7.98 9.965l6.04 5.723 1.377-1.454-6.04-5.723L7.98 9.965zm7.505 5.628l7.292-8.961-1.554-1.264-7.292 8.961 1.554 1.264z" fill="#00ADEF"/></svg>