<svg xmlns="http://www.w3.org/2000/svg" width="40" height="40" fill="none">
	<path fill="#7D8B94" fill-rule="evenodd" d="M20 0C8.95431 0 0 8.95431 0 20c0 11.0457 8.95431 20 20 20 11.0457 0 20-8.9543 20-20C40 8.95431 31.0457 0 20 0zm-.557 16.9483l-.042-.692c-.1259-1.7937.9793-3.432 2.728-4.0676.6435-.226 1.7347-.2542 2.4482-.0565.2797.0848.8113.3672 1.1891.6215l.6855.466.7554-.2401c.4197-.1271.9793-.3389 1.2311-.4802.2378-.1271.4476-.1977.4476-.1553 0 .2401-.5176 1.0592-.9512 1.5112-.5876.6355-.4197.692.7694.2683.7134-.2401.7274-.2401.5875.0283-.0839.1412-.5176.6355-.9792 1.0875-.7834.7768-.8254.8615-.8254 1.5112 0 1.0027-.4757 3.093-.9513 4.237-.8814 2.1467-2.7699 4.3641-4.6585 5.4798-2.6581 1.5677-6.1974 1.9632-9.1772 1.0452-.9933-.3107-2.7-1.1016-2.7-1.2429 0-.0423.5176-.0988 1.1471-.113 1.3151-.0282 2.6301-.3954 3.7493-1.0451l.7554-.4519-.8674-.2966c-1.231-.4237-2.3362-1.3982-2.616-2.3163-.084-.2966-.056-.3107.7274-.3107l.8114-.0141-.6854-.3248c-.8114-.4096-1.5529-1.1017-1.9166-1.8078-.2658-.5085-.6016-1.7937-.5036-1.8926.0279-.0423.3217.0424.6575.1554.9652.3531 1.0912.2683.5316-.3248-1.0493-1.0734-1.371-2.6694-.8674-4.1806l.2378-.6779.9233.918c1.8886 1.8502 4.113 2.9518 6.6591 3.2767l.6995.0847z" clip-rule="evenodd"/>
</svg>