<svg xmlns="http://www.w3.org/2000/svg" width="40" height="40" fill="none">
	<path fill="#7D8B94" fill-rule="evenodd" d="M20.0001 0C8.95437 0 .00006104 8.95431.00006104 20c0 11.0457 8.95430896 20 20.00003896 20 11.0457 0 20-8.9543 20-20 0-11.04569-8.9543-20-20-20zM9.6004 16.5652h4.5324v13.6181H9.6004V16.5652zm4.8316-4.213C14.4026 11.017 13.4478 10 11.8973 10c-1.5506 0-2.56423 1.017-2.56423 2.3522 0 1.3076.98373 2.3539 2.50533 2.3539h.029c1.5804 0 2.5646-1.0463 2.5646-2.3539zm10.8289 3.8929c2.9826 0 5.2185 1.9468 5.2185 6.1297l-.0001 7.8082H25.947v-7.2857c0-1.83-.6559-3.0787-2.2966-3.0787-1.2522 0-1.9981.8418-2.3256 1.6549-.1199.2914-.1493.6974-.1493 1.1044v7.6055h-4.533s.0598-12.3403 0-13.6181h4.533v1.9289c.6016-.9273 1.679-2.2491 4.0854-2.2491z" clip-rule="evenodd"/>
</svg>