<svg xmlns="http://www.w3.org/2000/svg" width="40" height="40" fill="none">
	<path fill="#7D8B94" fill-rule="evenodd" d="M20 0C8.95431 0 0 8.95431 0 20c0 11.0457 8.95431 20 20 20 11.0457 0 20-8.9543 20-20C40 8.95431 31.0457 0 20 0zm-4.3976 9.39745c1.1378-.05178 1.5014-.06444 4.3983-.06444h-.0034c2.8979 0 3.2601.01266 4.3979.06444 1.1355.052 1.9111.23178 2.5911.49556.7022.27219 1.2956.63669 1.8889 1.22999.5934.5929.9578 1.188 1.2311 1.8896.2623.6782.4423 1.4534.4956 2.5889.0511 1.1378.0644 1.5014.0644 4.3983 0 2.8969-.0133 3.2596-.0644 4.3974-.0533 1.1351-.2333 1.9104-.4956 2.5889-.2733.7013-.6377 1.2964-1.2311 1.8893-.5927.5934-1.1869.9587-1.8882 1.2312-.6787.2637-1.4547.4435-2.5903.4955-1.1378.0518-1.5002.0645-4.3974.0645-2.8967 0-3.26-.0127-4.3978-.0645-1.1353-.052-1.9107-.2318-2.5893-.4955-.7012-.2725-1.2963-.6378-1.889-1.2312-.5931-.5929-.9575-1.188-1.23019-1.8895-.26355-.6783-.44333-1.4534-.49556-2.589-.05155-1.1377-.06444-1.5002-.06444-4.3971s.01333-3.2607.06422-4.3985c.05111-1.1351.23111-1.9105.49556-2.5889.27331-.7014.63781-1.2965 1.23111-1.8894.5929-.5931 1.188-.9575 1.8896-1.22999.6782-.26378 1.4533-.44356 2.5889-.49556z" clip-rule="evenodd"/>
	<path fill="#7D8B94" fill-rule="evenodd" d="M19.0442 11.2561c.1858-.0003.3857-.0002.6014-.0001l.3555.0001c2.8481 0 3.1856.0102 4.3103.0613 1.04.0476 1.6045.2214 1.9805.3674.4977.1933.8526.4244 1.2257.7977.3734.3734.6045.7289.7983 1.2267.146.3756.32.94.3673 1.98.0511 1.1245.0622 1.4623.0622 4.309 0 2.8467-.0111 3.1845-.0622 4.3089-.0475 1.04-.2213 1.6045-.3673 1.98-.1934.4978-.4249.8523-.7983 1.2254-.3733.3733-.7277.6044-1.2257.7978-.3756.1466-.9405.32-1.9805.3675-1.1245.0511-1.4622.0622-4.3103.0622-2.8482 0-3.1858-.0111-4.3102-.0622-1.0401-.048-1.6045-.2218-1.9807-.3678-.4978-.1933-.8534-.4244-1.2267-.7977-.3733-.3734-.6045-.7281-.7982-1.2261-.146-.3755-.32-.94-.3674-1.98-.0511-1.1244-.0613-1.4622-.0613-4.3107 0-2.8485.0102-3.1845.0613-4.3089.0476-1.04.2214-1.6045.3674-1.9805.1933-.4978.4249-.8533.7982-1.2267.3733-.3733.7289-.6044 1.2267-.7982.376-.1467.9406-.32 1.9807-.3678.984-.0444 1.3653-.0578 3.3533-.06v.0027zm6.6506 1.7705c-.7067 0-1.28.5726-1.28 1.2795 0 .7067.5733 1.2801 1.28 1.2801s1.28-.5734 1.28-1.2801c0-.7066-.5733-1.28-1.28-1.28v.0005zM14.522 20.0001c0-3.0251 2.4525-5.4778 5.4776-5.4779 3.0251 0 5.4772 2.4527 5.4772 5.4779 0 3.0251-2.4518 5.4767-5.477 5.4767-3.0251 0-5.4778-2.4516-5.4778-5.4767z" clip-rule="evenodd"/>
	<path fill="#7D8B94" fill-rule="evenodd" d="M20.0009 16.4446c1.9636 0 3.5556 1.5918 3.5556 3.5556 0 1.9635-1.592 3.5556-3.5556 3.5556-1.9638 0-3.5556-1.5921-3.5556-3.5556 0-1.9638 1.5918-3.5556 3.5556-3.5556z" clip-rule="evenodd"/>
</svg>