<svg xmlns="http://www.w3.org/2000/svg" width="40" height="40" fill="none">
	<path fill="#7D8B94" fill-rule="evenodd" d="M19.9998 0C8.95412 0-.0001831 8.95431-.0001831 20c0 11.0457 8.9543031 20 19.9999831 20 11.0457 0 20-8.9543 20-20 0-11.04569-8.9543-20-20-20zm8.3345 13.1246c.9179.2518 1.6408.994 1.8862 1.9365.4458 1.7082.4458 5.2723.4458 5.2723s0 3.5641-.4458 5.2724c-.2454.9425-.9683 1.6847-1.8862 1.9367-1.6635.4576-8.3347.4576-8.3347.4576s-6.6711 0-8.3348-.4576c-.9179-.252-1.6408-.9942-1.88616-1.9367-.44569-1.7083-.44569-5.2724-.44569-5.2724s0-3.5641.44569-5.2723c.24536-.9425.96826-1.6847 1.88616-1.9365 1.6637-.4578 8.3348-.4578 8.3348-.4578s6.6712 0 8.3347.4578z" clip-rule="evenodd"/>
	<path fill="#7D8B94" fill-rule="evenodd" d="M17.9991 23.9999v-6.6666l5.3333 3.3334-5.3333 3.3332z" clip-rule="evenodd"/>
</svg>