<svg id="our-team" xmlns="http://www.w3.org/2000/svg" xmlns:xlink="http://www.w3.org/1999/xlink" viewBox="0 0 1200 1352"><defs><clipPath id="mask"><path d="M1042.9,917.08c-1.42,1.88-2.08,3.61-4.48,6-2,1.93-5.63,1.35-7.46,3.48,6,20.42.82,44.79,3.48,68.67l-1,45.29q.24,26.87.5,53.74-1.5,12.43-3,24.88c-40.47,3-404.46,11.41-812.11,134.85-13-10.3-18.25-31.18-24.88-48.76-5.39-14.29-10.9-29.64-14.93-46.28-3.34-13.78-3.26-34.73-.5-48.77q1-13.94,2-27.86,4.49-27.37,9-54.74c4.07-18.51,1.08-37.92,4.48-56.73l8-61.21c-6.34-9.31-16.68-16.28-10.45-29.86l8-12.93c2.74-7.65-.63-10.7,3.48-18.91l5.48-.5a77.83,77.83,0,0,1,5.47-26.87q1-7.21,2-14.43l10.95-41.8c6.19-21.79,12.85-51.54,21.89-75.64,3.14-8.36,4.44-20.79,9-27.87l12.94-12.94c11.13-13.38,20.82-28.91,35.33-38.81,25.36-17.3,48.72-24.54,75.64-34.83,7.94-3,28.38-5.53,30.85-15.93-7.39-.06-15.64-.88-20.9-5.47,2.55.3,2.77,1.14,4-1h1c-1-2.81-2.35-2.47-3.49-5.47,1.88-1.31,4-7,4.48-9.45-2.69-.46-3.4-1.53-5-3,7.28.18,9.68-1.45,13.93-3-.42-2.49-.19-2.32-2-2-4.17-3.28-4.86-4.49-10.45-6-.17-.66-.33-1.32-.5-2,3.91-2.63,3.47-7.07,9.46-8-1-9.25,7.79-11.68,8.46-19.9l-3,1.49c1.73-7.08,7-13.13,8-21.4.42-3.59-1.5-6.34-1.49-11.44l-3,1.49-.49-2-2.49,1c-3,2.37-5.36,6.61-8.46,7.47-.06-5.88,3.81-15.44,6.47-17.42.89,1,0,.35,1.49,1v-3.49c-2.8-3.25,2.46-5.66,1.49-9.45-3.06-11.93-2.33-38.81,0-53.25,2.37-14.69-4.69-21.8-5-21.89l-10,25.87c1.83-15.83,9.25-27.54,12.94-41.8q.26-10.69.5-21.39c6-21.36,8.46-45.49,17.42-63.7.84-1.71,4.38-21.18,7.46-25.38,3.25-4.41-1.75-8.22,1-13.43,17.47-33.21,43.42-67.12,48.27-72.66,12.27-13.93,23.58-24.24,29.35-30.35C538.28,94.51,566.8,84.09,585.59,88,591,89.18,597,96.49,601.52,99c6.65-4.18,13-14.42,18.91-15.92C669.72,81.76,712.35,48.21,824,260.72c9.51,9,29.07,45.36,26.87,66.18h-.49c-.17-.5-.34-1-.5-1.49,1-5.71-4.46-18.43-6.47-19.91-2.9,1.39-5.27.8-6.34-.43,4.87,12.11,9.3,21.71,11.81,32.28-4.42-.16.53-6.47-7-6.47v.5c5.84,25.86.13,21.72-.46,21,1.76,4.2,4.59,8.5.46,3.39h-.5c-2.44,16.77,4.57,30.14,8,46.28h-.5c-1.21-1.6-.78-2.12-3-3,.52,1.7,2.51,8.72,2,10.44-2.37.72-1.25-.35-2,2q1.2,6,2.41,12.07c.15.31.2.48.07.37s0-.25-.07-.37c-.67-1.36-3.41-5.45-3.41-.63q.75,2.49,1.49,5h-2c-.86,14.6-9.32,54.85,7,61.2v.5l-3-.5,5,8-1,3.48-1.5-1q-2.24-3.48-4.48-7l-1,1h-1c2.27,6.1,3.47,9.09,4.48,15.43h-.5c-3.17-2.58-3.56-.74-6.46-2.49-1.39-5-6.41-17.38-11.45-18.91v1.49c-.45.39,3.39,15.54,6.47,20.9-2.72.07-1.39-.52-3,1.5-6.67-5.55-7.67-18.66-16.92-22.4-.16.34-.33.67-.49,1,1.8,8.13,5.23,12.39,7,18.91a8.58,8.58,0,0,0-5.47-2v1.49c-.2,5.39,9.39,13.24,11.94,19.41-6.72-4.13-11.45-17.09-18.12-20.74.52,1.52,1.38,7.72.21,10.79q2.24,4.47,4.48,9c-1.14.12-.76-.24-2,.5,2.89,6.34,4.12,10.78,10.94,13.44,0,.66,1.66.66-5,0l10.45,5.47c-1.31,1-1.15.3-2,2,8.48.43,14.54-2.56,22.89-1.49l-.5,1c-8,1.67-20,8-29.86,2-5.32-3.23-9.07-11.15-14.93-12.93-.83,2.25-.59,1.88-3.48,2a3.76,3.76,0,0,0-.5-2.49c-.66,0,.66-.83-3.94,2.46.53.42,4,3.79,6.43,5.5l-4-1.49v1.49l30.36,15.43C866.71,575.23,905.83,587.64,928,616c11.2,14.36,19.9,30.3,30.86,45.28,6.49,8.88,17.49,14.8,22.39,25.38,1.33,2.87-.85,3.81-.5,6.47,1.19,9.11,4.37,15.8,8,23.39,6.07,12.83,17.93,27.32,23.39,43.79,3.64,11,1.21,16.16,2.49,25.87l11,38.32,6,37.32c3.44.44,4.47,1.35,6.47,3v18.41C1039.7,888.18,1046.44,912.41,1042.9,917.08Z" style="fill:none;clip-rule:evenodd"/></clipPath></defs><title>team-masked</title><g style="clip-path:url(#mask)"><image width="1200" height="1352" xlink:href="https://triblio.com/wp-content/uploads/2018/11/team-photo-tiny.jpg"/></g></svg>