<svg  viewBox="0 0 128 128" fill="none" xmlns="http://www.w3.org/2000/svg"><path fill-rule="evenodd" clip-rule="evenodd" d="M42.003 64.222a21.949 21.949 0 0 0 3.156 11.107c2.238 3.694 5.61 6.788 9.554 8.575 1.095.494 2.215.936 3.377 1.258 1.186.332 2.397.528 3.622.668 2.267.264 4.573.11 6.811-.341 4.275-.865 8.305-3.132 11.312-6.278 3.022-3.161 5.15-7.258 5.817-11.596.183-1.206.313-2.411.313-3.631a2.14 2.14 0 0 0-.006-.156c-.04-4.394-1.393-8.82-3.948-12.41a24.014 24.014 0 0 0-2.267-2.758c-.817-.845-1.715-1.585-2.647-2.3-1.734-1.326-3.674-2.325-5.72-3.075-2.119-.778-4.396-1.186-6.653-1.268a20.663 20.663 0 0 0-.977-.014c-1.939.016-3.899.3-5.753.826-4.18 1.186-8.056 3.65-10.822 7.008a23.33 23.33 0 0 0-2.08 2.906c-.61 1.019-1.1 2.09-1.547 3.185-.85 2.07-1.302 4.28-1.48 6.509a20.523 20.523 0 0 0-.062 1.785zm26.074 9.577a50.625 50.625 0 0 1-8.207-.003 26.643 26.643 0 0 0 1.165 3.664c.392.895.848 1.763 1.418 2.556.247.296.513.577.804.83.138.093.28.179.429.256.064.02.13.039.195.055h.172c.076-.019.151-.04.226-.064.146-.076.287-.161.422-.253.28-.243.536-.512.774-.798.578-.803 1.044-1.685 1.441-2.59a26.76 26.76 0 0 0 1.16-3.653zm-9.041-4.879a49.438 49.438 0 0 0 9.877.002c.166-1.641.244-3.292.244-4.943a49.01 49.01 0 0 0-.243-4.935 49.013 49.013 0 0 0-4.935-.243c-1.65 0-3.301.077-4.943.244a49.438 49.438 0 0 0 0 9.876zm-4.875-9.04c-.07.85-.118 1.7-.145 2.552a50.631 50.631 0 0 0 .144 5.654 26.764 26.764 0 0 1-3.655-1.16c-.904-.397-1.787-.863-2.59-1.441a6.883 6.883 0 0 1-.797-.774 4.363 4.363 0 0 1-.254-.423 3.64 3.64 0 0 1-.063-.225v-.173c.016-.065.034-.13.055-.195.077-.148.162-.29.255-.428a7.24 7.24 0 0 1 .83-.804c.793-.57 1.661-1.027 2.557-1.419 1.188-.48 2.416-.86 3.663-1.164zm5.71-5.716a49.86 49.86 0 0 1 4.143-.167 50.107 50.107 0 0 1 4.064.165 26.627 26.627 0 0 0-1.165-3.664c-.391-.896-.847-1.764-1.418-2.557a7.23 7.23 0 0 0-.804-.83 4.374 4.374 0 0 0-.429-.255 3.156 3.156 0 0 0-.176-.05h-.21c-.07.017-.138.037-.206.058a4.377 4.377 0 0 0-.423.254 6.89 6.89 0 0 0-.774.798c-.578.802-1.044 1.685-1.44 2.59a26.773 26.773 0 0 0-1.163 3.658zm13.924 5.716c1.244.304 2.47.683 3.657 1.162.905.397 1.787.862 2.59 1.44.286.238.555.495.798.774.092.136.177.277.253.423.023.073.044.146.063.22v.182a3.1 3.1 0 0 1-.054.19 4.355 4.355 0 0 1-.255.43 7.239 7.239 0 0 1-.83.803c-.794.571-1.662 1.027-2.557 1.419-1.188.48-2.417.86-3.665 1.165a50.025 50.025 0 0 0 .165-4.073v-.036c0-1.368-.053-2.736-.165-4.099zm-.672 13.25l-.051.268c-.322 1.648-.75 3.281-1.34 4.857-.166.442-.34.885-.528 1.323a19.73 19.73 0 0 0 3.265-1.974 20.032 20.032 0 0 0 3.13-3.13 19.742 19.742 0 0 0 1.979-3.273c-1.531.652-3.1 1.174-4.72 1.559-.575.137-1.153.26-1.735.37zm6.45-16.38c-.436-.186-.878-.359-1.318-.524-1.576-.59-3.209-1.018-4.857-1.34a43.063 43.063 0 0 0-.28-.054 33.439 33.439 0 0 0-.666-2.905 26.993 26.993 0 0 0-1.245-3.542c1.148.55 2.24 1.211 3.262 1.973a20.033 20.033 0 0 1 3.13 3.13 19.732 19.732 0 0 1 1.974 3.263zm1.455 7.733l.126-.3-.126.3zm-3.476 2.402zM54.827 54.84a33.45 33.45 0 0 0-2.9.665 26.994 26.994 0 0 0-3.547 1.248 19.735 19.735 0 0 1 1.974-3.264 20.033 20.033 0 0 1 3.13-3.13 19.738 19.738 0 0 1 3.252-1.969 27.23 27.23 0 0 0-.894 2.389 31.822 31.822 0 0 0-1.015 4.06zm-4.421 6.242zm-2.022 10.137a19.736 19.736 0 0 0 1.97 3.255 20.035 20.035 0 0 0 3.13 3.13 19.74 19.74 0 0 0 3.275 1.98 29.318 29.318 0 0 1-1.56-4.725c-.138-.574-.26-1.15-.37-1.73a31.81 31.81 0 0 1-4.05-1.013 27.246 27.246 0 0 1-2.395-.897zm12.688 6.333zm5.804-27.146z" fill="url(#web_linear)"/><defs><linearGradient id="web_linear" x1="85.965" y1="42" x2="42.002" y2="63.984" gradientUnits="userSpaceOnUse"><stop stop-color="#79CD51"/><stop offset="1" stop-color="#19AB4F"/></linearGradient></defs></svg>