<svg viewbox="0 0 24 24" fill="none" xmlns="http://www.w3.org/2000/svg"><path fill-rule="evenodd" clip-rule="evenodd" d="M2.001 12.11a9.987 9.987 0 0 0 1.436 5.054c1.018 1.68 2.552 3.088 4.346 3.9.499.226 1.008.427 1.536.573.54.151 1.09.24 1.648.304 1.031.12 2.08.05 3.099-.155 1.944-.393 3.778-1.425 5.146-2.856 1.374-1.438 2.342-3.303 2.646-5.276A11.03 11.03 0 0 0 22 12.002c0-.024 0-.047-.003-.071-.018-2-.633-4.013-1.795-5.646A10.925 10.925 0 0 0 19.17 5.03c-.371-.384-.78-.72-1.204-1.047-.789-.603-1.672-1.057-2.602-1.398A9.853 9.853 0 0 0 12.024 2a9.958 9.958 0 0 0-2.749.376c-1.9.54-3.664 1.661-4.922 3.189-.346.417-.669.856-.947 1.322-.277.463-.5.95-.703 1.449-.387.942-.592 1.947-.673 2.961a9.361 9.361 0 0 0-.03.813zm11.862 4.357a23.025 23.025 0 0 1-3.734-.001c.139.568.312 1.127.53 1.667.178.408.386.802.645 1.163.112.135.234.263.366.378.063.042.128.081.195.116.03.01.06.018.089.025h.078c.035-.008.069-.018.103-.029.066-.035.13-.073.192-.115.127-.11.244-.233.352-.363a6.43 6.43 0 0 0 .656-1.178c.217-.54.39-1.097.528-1.663zM9.75 14.248a22.48 22.48 0 0 0 4.493.001c.076-.747.111-1.498.111-2.25 0-.75-.035-1.499-.11-2.245a22.286 22.286 0 0 0-2.246-.11c-.75 0-1.501.035-2.248.11a22.57 22.57 0 0 0 0 4.494zm-2.218-4.113a22.534 22.534 0 0 0 0 3.733 12.187 12.187 0 0 1-1.663-.528 6.427 6.427 0 0 1-1.178-.655 3.133 3.133 0 0 1-.363-.352 1.992 1.992 0 0 1-.115-.193 1.653 1.653 0 0 1-.03-.102v-.079l.026-.088a1.89 1.89 0 0 1 .116-.195 3.3 3.3 0 0 1 .378-.366c.36-.26.755-.467 1.163-.645a11.95 11.95 0 0 1 1.666-.53zm2.597-2.6a22.676 22.676 0 0 1 3.264-.035c.156.01.313.02.47.033a12.128 12.128 0 0 0-.53-1.667 6.298 6.298 0 0 0-.645-1.163 3.291 3.291 0 0 0-.366-.378 1.987 1.987 0 0 0-.195-.116 1.438 1.438 0 0 0-.08-.023h-.095a1.628 1.628 0 0 0-.094.027 1.99 1.99 0 0 0-.193.115 3.18 3.18 0 0 0-.352.363 6.428 6.428 0 0 0-.655 1.179c-.218.54-.39 1.098-.529 1.664zm6.335 2.6c.566.138 1.123.31 1.664.528.411.18.813.393 1.178.656.13.108.252.225.363.352.041.062.08.126.115.192.01.033.02.067.028.1v.083c-.007.03-.015.058-.024.087a1.98 1.98 0 0 1-.116.195 3.295 3.295 0 0 1-.378.366c-.36.26-.756.467-1.163.645-.54.218-1.1.391-1.667.53a23.69 23.69 0 0 0 .075-1.853V12c0-.623-.024-1.245-.075-1.865zm-.306 6.028l-.023.122a13.843 13.843 0 0 1-.85 2.812 8.975 8.975 0 0 0 1.486-.898 9.113 9.113 0 0 0 1.424-1.424c.347-.467.649-.965.9-1.49a13.34 13.34 0 0 1-2.147.71c-.262.062-.525.118-.79.168zm2.934-7.452a13.843 13.843 0 0 0-2.936-.873 15.253 15.253 0 0 0-.303-1.322 12.29 12.29 0 0 0-.566-1.61 8.93 8.93 0 0 1 1.484.897c.525.42 1.003.899 1.424 1.424.346.465.647.962.897 1.484zm.662 3.518l.058-.136-.058.136zm-1.581 1.093zM7.835 7.842c-.443.082-.883.18-1.32.303-.547.152-1.09.34-1.613.567A8.98 8.98 0 0 1 5.8 7.227a9.113 9.113 0 0 1 1.424-1.424 8.978 8.978 0 0 1 1.48-.896 12.41 12.41 0 0 0-.407 1.087 14.483 14.483 0 0 0-.462 1.848zm-2.011 2.84zm-.92 4.612c.25.52.55 1.017.896 1.48.42.526.899 1.005 1.424 1.425.467.348.966.65 1.49.9a13.34 13.34 0 0 1-.71-2.15 16.84 16.84 0 0 1-.168-.786 14.471 14.471 0 0 1-1.842-.461c-.366-.12-.733-.253-1.09-.408zm5.772 2.88zm2.64-12.35z" fill="#00ADEF"/></svg>